PathFileType	4	(X/Y/Z)	C:\Users\Basilio\Documents\Thesis Gigler\squatting_fais\c3dfiles\058\SLS_back_pre2\markers_experimental.trc
DataRate	CameraRate	NumFrames	NumMarkers	Units	OrigDataRate	OrigDataStartFrame	OrigNumFrames
200.000000	200.000000	4	61	mm	200.000000	1301	1487
Frame#	Time	FHD			LBHD			RBHD			C7			T10			CLAV			LSHO			LUUPA			LMUPA			LDUPA			LLEP			LMEP			LUL			LRFIN			RSHO			RUPA1			RMUPA			RDUPA			RLEP			RMEP			RRAD			RUL			RUFIN			LASI			RASI			USACR			LSACR			RSACR			LTHI1			LTHI2			LTHI3			LTHI4			LLFC			LMFC			LTIB1			LTIB2			LTIB3			LTIB4			LLMAL			LMMAL			LHEE			LMT1			LMT5			RTHI			RTHI2			RTHI3			RTHI4			RLFC			RMFC			RTIB1			RTIB2			RTIB3			RTIB4			RLMAL			RMMAL			RHEE			RMT1			RMT2			RMT5			LRAD			LMT2			
		X1	Y1	Z1	X2	Y2	Z2	X3	Y3	Z3	X4	Y4	Z4	X5	Y5	Z5	X6	Y6	Z6	X7	Y7	Z7	X8	Y8	Z8	X9	Y9	Z9	X10	Y10	Z10	X11	Y11	Z11	X12	Y12	Z12	X13	Y13	Z13	X14	Y14	Z14	X15	Y15	Z15	X16	Y16	Z16	X17	Y17	Z17	X18	Y18	Z18	X19	Y19	Z19	X20	Y20	Z20	X21	Y21	Z21	X22	Y22	Z22	X23	Y23	Z23	X24	Y24	Z24	X25	Y25	Z25	X26	Y26	Z26	X27	Y27	Z27	X28	Y28	Z28	X29	Y29	Z29	X30	Y30	Z30	X31	Y31	Z31	X32	Y32	Z32	X33	Y33	Z33	X34	Y34	Z34	X35	Y35	Z35	X36	Y36	Z36	X37	Y37	Z37	X38	Y38	Z38	X39	Y39	Z39	X40	Y40	Z40	X41	Y41	Z41	X42	Y42	Z42	X43	Y43	Z43	X44	Y44	Z44	X45	Y45	Z45	X46	Y46	Z46	X47	Y47	Z47	X48	Y48	Z48	X49	Y49	Z49	X50	Y50	Z50	X51	Y51	Z51	X52	Y52	Z52	X53	Y53	Z53	X54	Y54	Z54	X55	Y55	Z55	X56	Y56	Z56	X57	Y57	Z57	X58	Y58	Z58	X59	Y59	Z59	X60	Y60	Z60	X61	Y61	Z61	

1302	6.505	-224.3507080078126	1808.251831054688	-621.7409057617189	-382.9641113281251	1767.072143554688	-695.7579956054689	-211.0946197509766	1815.29638671875	-763.5625000000001	-397.8266906738282	1599.139892578125	-711.9851684570314	-399.7547912597657	1292.9697265625	-700.8217773437501	-238.9157104492188	1556.492919921875	-696.6620483398439	-252.9649658203126	1610.99658203125	-848.6496582031252	-96.32026672363284	1544.467163085938	-955.121276855469	-72.36743164062501	1581.608764648438	-929.5903320312502	-26.72073936462403	1545.238647460938	-945.2978515625002	47.59064483642579	1549.470336914063	-926.8008422851565	51.22521591186525	1494.132446289063	-892.6038818359377	314.6690979003907	1586.521728515625	-892.3755493164065	409.0155029296876	1591.100830078125	-810.4154052734377	-267.7880554199219	1606.169311523438	-543.6146240234376	-107.8838195800782	1516.887573242188	-441.5371093750001	-85.12603759765626	1555.26416015625	-465.210906982422	-38.43584060668946	1525.652099609375	-443.8466796875001	28.47185707092286	1517.390869140625	-454.7203063964845	34.00144958496094	1458.402099609375	-505.2166442871095	nan	nan	nan	296.6068115234376	1557.880126953125	-467.2077636718751	386.903533935547	1576.4931640625	-536.1123657226564	-229.1486358642579	1101.174072265625	-845.519714355469	-214.6355133056641	1076.616943359375	-604.7769775390626	-412.8226318359376	1175.50830078125	-695.3681030273439	-422.1483154296876	1146.37353515625	-725.2637939453126	-413.5419921875001	1141.076538085938	-668.1950073242189	-227.6851654052735	837.525817871094	-944.0959472656252	-182.0006103515625	764.8645019531251	-948.5074462890627	-139.0046081542969	768.7471313476565	-922.1968383789065	-200.9878234863282	707.9454956054689	-949.6797485351565	-208.1638336181641	629.1744384765626	-944.8278808593752	-186.6520233154297	592.7636108398439	-817.6215820312502	-290.4353332519532	528.7446899414064	-924.344909667969	-347.8381652832032	585.5283203125001	-954.1812744140627	-341.7084960937501	541.3502197265626	-951.3922119140627	-419.1075134277345	513.5657348632814	-925.556091308594	-621.5935668945314	534.5155029296876	-912.6612548828127	-592.8948364257814	481.4924621582032	-840.6577148437502	-603.2961425781251	580.5293579101564	-845.3999633789065	-712.1036376953126	388.1235961914064	-842.1546630859377	-747.6237182617189	455.8868103027345	-917.7317504882815	-336.7045898437501	869.024108886719	-553.8969726562501	-304.6667175292969	811.339538574219	-555.9039306640626	-271.9761657714844	809.4136962890627	-557.6085815429689	-338.0692443847657	736.9285888671876	-578.8701782226564	-342.8468322753907	556.7603149414064	-612.7543945312501	-310.7979736328126	553.8769531250001	-746.9791870117189	-297.0543212890626	358.2866516113282	-716.1649169921876	-336.8714904785157	275.0953369140626	-659.5029907226564	-300.7253112792969	270.5983581542969	-690.7540893554689	-311.2100219726563	230.3044586181641	-729.9843750000001	-373.5901794433594	120.2892150878907	-700.1597900390626	-342.0443725585938	146.4413604736328	-785.8430175781252	-439.0347290039064	103.5530319213867	-764.6651000976564	-228.4157409667969	59.50404357910158	-776.5800781250002	-224.4886016845704	57.49729919433595	-724.1062011718751	-273.6755371093751	27.64354705810548	-673.0179443359376	308.4995727539063	1565.279052734375	-813.0883789062502	nan	nan	nan	
1303	6.51	-224.3659210205079	1808.264770507813	-621.7059326171876	-383.0086975097657	1767.149291992188	-695.6350097656251	-211.2825469970704	1815.365356445313	-763.5443725585939	-397.9658203125001	1599.189208984375	-711.8176269531251	-399.831756591797	1292.978271484375	-700.6163330078126	-239.1060791015626	1556.533203125	-696.5219116210939	-253.1443939208985	1611.051513671875	-848.527526855469	-96.54042816162112	1544.414672851563	-955.0450439453127	-72.59252166748048	1581.561157226563	-929.566101074219	-26.99159622192384	1545.196166992188	-945.262634277344	47.25879669189454	1549.38623046875	-926.823913574219	51.20642471313478	1494.126708984375	-892.7783203125002	314.3962707519532	1586.427734375	-892.2728271484377	408.8692626953126	1590.906005859375	-810.3352661132815	-267.9060363769532	1606.224731445313	-543.5223388671876	-107.9197311401367	1516.890991210938	-441.4666137695314	-85.06772613525392	1555.12451171875	-465.0401306152345	-38.4441032409668	1525.668334960938	-443.8527221679689	28.43635177612305	1517.487426757813	-454.7423095703126	33.94861221313477	1458.470947265625	-505.2530822753907	nan	nan	nan	296.5405883789063	1557.953735351563	-467.2690429687501	386.8513488769532	1576.559936523438	-536.3196411132814	-229.1685180664063	1101.27783203125	-845.431823730469	-214.6857452392579	1076.657470703125	-604.7331542968751	-412.9779052734376	1175.503662109375	-695.2152709960939	-422.2216186523439	1146.423828125	-725.2050170898439	-413.6887817382814	1141.063598632813	-668.0942382812501	-227.5571289062501	837.7037353515627	-944.115173339844	-181.88037109375	765.1390380859376	-948.4751586914065	-138.7825317382813	768.9472656250002	-922.1165161132815	-200.8277282714844	708.0961914062501	-949.688415527344	-207.8930206298829	629.3566284179689	-944.8718872070315	-186.4140014648438	593.0377197265626	-817.715759277344	-290.2716064453126	528.6948242187501	-924.2733154296877	-347.4496765136719	585.4612426757814	-954.3446044921877	-341.1899414062501	541.2940063476564	-951.5963134765627	-418.8209228515626	513.4572143554689	-925.7105102539065	-621.1540527343751	533.7552490234376	-912.951110839844	-592.3923339843751	481.0261535644532	-841.1365966796877	-602.9413452148439	579.8650512695314	-845.5989379882815	-711.2402343750001	387.2723388671876	-842.9108886718752	-747.8239746093751	455.217254638672	-917.9146728515627	-336.8229370117188	869.070983886719	-553.8320922851564	-305.0819396972657	811.5322265625002	-555.7119750976564	-272.0525817871094	809.529235839844	-557.5111083984376	-338.2552185058594	737.1132812500001	-578.7335815429689	-343.0271606445313	556.7715454101564	-612.6419067382814	-310.8247070312501	553.9255981445314	-746.7683105468751	-297.0874328613282	358.2494812011719	-715.9171752929689	-337.0377807617188	274.9943542480469	-659.2152709960939	-300.7269592285157	270.6111450195313	-690.5559692382814	-311.2180786132813	230.3571166992188	-729.7806396484376	-373.5963134765626	120.2390899658203	-700.0042724609376	-342.0232849121094	146.5820922851563	-785.644226074219	-439.2119750976564	103.4666290283203	-764.5466918945314	-228.4451904296876	59.60776138305665	-776.4756469726565	-224.5360412597657	57.39257049560548	-724.0165405273439	-273.7153320312501	27.55366516113282	-672.9747924804689	308.2333374023438	1565.202270507813	-813.022155761719	nan	nan	nan	
1304	6.515000000000001	-224.4230499267579	1808.298461914063	-621.7191162109376	-383.3686828613282	1767.231567382813	-695.3762817382814	-211.3831024169922	1815.4287109375	-763.4156494140626	-398.0673828125001	1599.185302734375	-711.6383666992189	-399.9124755859376	1293.045166015625	-700.4329223632814	-239.1755981445313	1556.549072265625	-696.4266357421876	-253.3288116455079	1611.146728515625	-848.4631347656252	-96.73598480224612	1544.373779296875	-954.959411621094	-72.94569396972658	1581.582153320313	-929.5268554687502	-27.2586784362793	1545.125366210938	-945.2631835937502	46.95627212524415	1549.338623046875	-926.8472290039065	50.63343048095705	1493.966796875	-892.515319824219	314.1773986816407	1586.296875	-892.2244262695315	408.7072143554689	1590.743530273438	-810.3142089843752	-267.8408813476563	1606.269287109375	-543.4505615234376	-107.8401107788086	1516.855102539063	-441.2529907226564	-85.32227325439455	1555.287475585938	-465.1941528320314	-38.42380905151368	1525.705200195313	-443.9312744140626	28.42319488525391	1517.536376953125	-454.7833251953126	33.90161132812501	1458.50830078125	-505.3086853027345	nan	nan	nan	296.5471801757813	1558.08447265625	-467.3387756347657	386.762908935547	1576.625244140625	-536.4718017578126	-229.1682281494141	1101.33447265625	-845.2940673828127	-214.8902587890626	1076.638671875	-604.5969848632814	-413.070281982422	1175.608276367188	-695.2214355468751	-422.314422607422	1146.464233398438	-725.1580200195314	-413.7586669921876	1141.162841796875	-668.0198364257814	-227.426010131836	837.897399902344	-944.083923339844	-181.7185821533203	765.3903198242189	-948.4320068359377	-136.4367218017578	769.1699829101565	-922.966735839844	-200.5992126464844	708.2631225585939	-949.632507324219	-207.7105102539063	629.4912719726564	-944.8519287109377	-186.4741363525391	593.2209472656251	-817.877136230469	-289.8147277832032	528.4424438476564	-924.232360839844	-347.1239013671876	585.3829345703126	-954.4416503906252	-340.7377014160157	541.2437744140626	-951.7380981445315	-418.569793701172	513.4684448242189	-925.8098144531252	-620.6851806640626	533.2822265625001	-913.1539306640627	-592.3066406250001	480.2763977050782	-840.8704833984377	-602.6703491210939	578.8722534179689	-846.0080566406252	-710.6377563476564	386.4158020019532	-843.360290527344	-746.7019653320314	453.9917602539064	-918.500671386719	-336.9669799804688	869.171813964844	-553.7504882812501	-305.1600952148438	811.546813964844	-555.6510620117189	-272.1465148925782	809.5468750000002	-557.3951416015626	-338.7097473144532	737.0642700195314	-578.5823974609376	-343.2368774414063	556.8459472656251	-612.5023193359376	-310.8320617675782	553.9653320312501	-746.6388549804689	-297.1335754394532	358.2551879882813	-715.7124023437501	-337.0774536132813	275.1479187011719	-659.0623779296876	-300.7386779785157	270.6567077636719	-690.4339599609376	-311.1825866699219	230.3894500732422	-729.6164550781251	-373.6196289062501	120.1931838989258	-699.8709716796876	-342.0359497070313	146.6644592285157	-785.4620361328127	-439.1192626953126	103.5636749267578	-764.4954833984376	-228.701156616211	60.05559158325197	-776.5529785156252	-223.218002319336	58.71601867675783	-724.4448852539064	-273.6795654296876	27.54049873352051	-672.9057617187501	308.0568542480469	1564.979614257813	-812.9702148437502	nan	nan	nan	
1305	6.52	-224.4952697753907	1808.482543945313	-621.5974731445314	-383.4317321777344	1767.25048828125	-695.1835937500001	-211.5681152343751	1815.424194335938	-763.4103393554689	-398.1842346191407	1599.267578125	-711.4889526367189	-400.0670166015626	1293.079345703125	-700.3171997070314	-239.2852325439454	1556.538452148438	-696.2955322265626	-253.5046081542969	1611.186157226563	-848.2482910156252	-97.00479888916018	1544.309936523438	-954.9290161132815	-73.02843475341798	1581.612548828125	-929.4863891601565	-27.64343833923341	1545.088012695313	-945.2152099609377	46.73874664306641	1549.242919921875	-926.8325195312502	50.50809860229494	1493.792114257813	-892.6433715820315	314.0956115722657	1586.169799804688	-892.290710449219	407.6082153320314	1590.116577148438	-810.6666259765627	-267.9136657714844	1606.307739257813	-543.3581542968751	-107.8397598266602	1516.922485351563	-441.1923217773439	-85.46326446533205	1555.358642578125	-465.0783691406251	-38.4318962097168	1525.722534179688	-443.9287109375001	28.41345787048341	1517.571411132813	-454.7853393554689	33.88595199584962	1458.604248046875	-505.3126831054689	nan	nan	nan	296.4392700195313	1558.11572265625	-467.3577575683595	386.6467895507814	1576.750854492188	-536.5054931640626	-229.1976623535157	1101.367431640625	-845.1655273437502	-215.0584716796876	1076.695434570313	-604.4355468750001	-413.1354980468751	1175.59716796875	-695.1392822265626	-422.398162841797	1146.515991210938	-725.1295776367189	-414.0796813964845	1141.232055664063	-667.9090576171876	-227.2243194580079	838.0551757812502	-944.0989379882815	-181.5127868652344	765.5635986328126	-948.4014892578127	-136.3677825927735	769.4116821289065	-922.862731933594	-200.3268737792969	708.4795532226564	-949.6158447265627	-207.4555969238282	629.7412719726564	-944.8115844726565	-186.4667053222657	593.4445190429689	-817.959411621094	-289.4999694824219	528.7237548828126	-924.4486083984377	-346.7002868652344	585.2777099609376	-954.5005493164065	-340.3300476074219	541.1900634765626	-951.8167114257815	-418.250457763672	513.0610961914064	-925.999206542969	-620.2603149414064	532.6998901367189	-913.622741699219	-591.7129516601564	479.5809020996095	-841.405456542969	-602.2843017578126	578.3905029296876	-846.2325439453127	-709.9536132812501	385.7195739746095	-843.7735595703127	-745.9472656250001	453.190155029297	-919.0930786132815	-337.1911926269532	869.3284301757815	-553.6248779296876	-305.2936706542969	811.5020751953127	-555.5575561523439	-272.1273498535157	809.3414306640627	-557.3960571289064	-338.8742065429688	737.1825561523439	-578.5070800781251	-343.2961425781251	556.8484497070314	-612.3988037109376	-310.8615722656251	553.9846191406251	-746.5324096679689	-297.1745605468751	358.2963256835938	-715.6206665039064	-337.2361755371094	275.1293945312501	-658.9750366210939	-300.7290039062501	270.6911010742188	-690.3392333984376	-311.1609191894532	230.4200439453126	-729.4993286132814	-373.6337890625001	120.1576843261719	-699.8261718750001	-341.8700561523438	146.7471771240235	-785.315612792969	-439.1164855957032	103.5993576049805	-764.4329833984376	-228.4457550048829	59.71757125854494	-776.3687744140627	-224.5229644775391	57.43358230590822	-723.9196777343751	-273.6935729980469	27.51983451843262	-672.9096679687501	307.9165649414063	1564.85302734375	-812.9577636718752	nan	nan	nan	
